<?xml version="1.0" encoding="utf-8"?><svg preserveAspectRatio="none" viewBox="0 0 64 61" xmlns="http://www.w3.org/2000/svg" xmlns:xlink="http://www.w3.org/1999/xlink"><view id="go" viewBox="16 0 32 32"/><svg height="32" width="32" viewBox="0 0 1.28 1.28" x="16" xmlns="http://www.w3.org/2000/svg"><path d="M1.22.56a.06.06 0 0 1-.041-.017h-.002l-.149-.15-.377.378A.1.1 0 0 1 .51.63L.886.251l-.15-.15A.06.06 0 0 1 .78 0h.42a.08.08 0 0 1 .08.079V.5a.06.06 0 0 1-.06.06zM.16.36v.72c0 .022.018.04.04.04h.72a.04.04 0 0 0 .04-.04V.64l.16.16v.32a.16.16 0 0 1-.16.16h-.8A.16.16 0 0 1 0 1.12v-.8A.16.16 0 0 1 .16.16h.32l.16.16H.2a.04.04 0 0 0-.04.04z" fill-rule="evenodd" clip-rule="evenodd"/></svg><view id="lock" viewBox="16 32 32 14.609"/><svg height="14.609" width="32" viewBox="0 0 16 7.3043518" x="16" y="32" xmlns="http://www.w3.org/2000/svg"><path d="M3.652 0C5.04 0 6.246.775 6.864 1.913h7.397L16 3.478l-2.261 1.913-1.043-1.043-1.044 1.043-1.043-1.043L9.565 5.39h-2.7A3.654 3.654 0 0 1 0 3.652 3.652 3.652 0 0 1 3.652 0zM2.435 2.609a1.044 1.044 0 1 0 0 2.087 1.044 1.044 0 0 0 0-2.087z" overflow="visible" color="#000"/></svg><view id="no" viewBox="48 0 16 16"/><svg viewBox="0 0 16 16" width="16" height="16" x="48" xmlns="http://www.w3.org/2000/svg"><path d="M11.327 8.028l3.984 3.984a2.353 2.353 0 0 1-3.328 3.327L8 11.357l-3.983 3.982a2.353 2.353 0 0 1-3.328-3.327l3.983-3.983L.69 4.046A2.353 2.353 0 0 1 4.017.718L8 4.7 11.983.718a2.353 2.353 0 1 1 3.328 3.328z"/></svg><view id="reload" viewBox="0 0 16 60.038"/><svg height="60.038" width="16" viewBox="0 0 16 15.8846" xmlns="http://www.w3.org/2000/svg"><path d="M15.751 5.67c.05-1.494-2.39-5.675-7.567-5.675-3.205 0-5.767 2.277-6.38 2.87L0 1.055v7.272h7.238L5.035 6.113c.709-.703 5.072-4.628 10.717-.44zM.249 10.2c-.05 1.5 2.39 5.68 7.567 5.68 3.205 0 5.767-2.278 6.38-2.871L16 14.819V7.547H8.762l2.203 2.214c-.709.704-5.072 4.629-10.717.44z"/></svg><view id="search" viewBox="48 16 16 16"/><svg viewBox="0 0 16 16" width="16" height="16" x="48" y="16" xmlns="http://www.w3.org/2000/svg"><title>Search v2.6</title><path d="M15.553 13.398a1.524 1.524 0 0 1-2.155 2.155l-3.145-3.145a.812.812 0 0 0-.907-.129s.038-.009-.207.102a6.476 6.476 0 1 1 3.238-3.234c-.11.242-.1.201-.1.201a.809.809 0 0 0 .131.905zm-9.077-3.303a3.619 3.619 0 1 0 0-7.238 3.619 3.619 0 0 0 0 7.238z" fill="#000"/></svg><view id="yes" viewBox="48 32 16 11.953"/><svg viewBox="0 0 16 11.952673" height="11.953" width="16" x="48" y="32" xmlns="http://www.w3.org/2000/svg"><path style="text-transform:none;text-indent:0" overflow="visible" d="M13.865-.022a1.989 1.989 0 0 0-1.346.663L6.532 7.177l-3.18-2.724A1.989 1.989 0 1 0 .763 7.467l4.64 3.977a1.989 1.989 0 0 0 2.766-.166l7.291-7.954a1.989 1.989 0 0 0-1.595-3.331z" color="#000"/></svg></svg>